<?xml version="1.0" standalone="no"?>
<!DOCTYPE svg PUBLIC "-//W3C//DTD SVG 20010904//EN"
 "http://www.w3.org/TR/2001/REC-SVG-20010904/DTD/svg10.dtd">
<svg version="1.0" xmlns="http://www.w3.org/2000/svg"
 width="302.000000pt" height="302.000000pt" viewBox="0 0 302.000000 302.000000"
 preserveAspectRatio="xMidYMid meet">
<metadata>
Created by potrace 1.11, written by Peter Selinger 2001-2013
</metadata>
<g transform="translate(0.000000,302.000000) scale(0.100000,-0.100000)"
fill="#000000" stroke="none">
<path d="M1340 2960 c-63 -12 -229 -37 -330 -50 -47 -6 -107 -15 -135 -20 -27
-5 -104 -16 -170 -25 -66 -9 -139 -20 -163 -25 -23 -6 -60 -10 -81 -10 -21 0
-51 -4 -67 -10 -27 -9 -96 -19 -259 -40 -38 -4 -85 -11 -102 -15 l-33 -7 0
-349 c0 -221 4 -350 10 -354 13 -8 13 -56 -1 -91 -6 -19 -7 -35 -1 -49 10 -20
26 -220 43 -540 5 -99 13 -229 17 -290 l7 -110 228 -113 c126 -61 233 -110
238 -106 5 3 8 54 7 114 -1 60 1 112 4 115 4 5 45 -13 236 -101 40 -19 75 -34
77 -34 3 0 42 -18 87 -39 46 -22 95 -43 111 -46 l27 -7 0 126 c0 120 1 126 20
126 11 0 28 -4 38 -9 9 -5 58 -26 107 -46 144 -58 209 -85 225 -94 12 -7 16
-35 18 -142 1 -73 6 -137 11 -142 8 -8 185 63 203 81 5 5 12 71 15 146 l6 138
51 23 c86 39 137 56 148 49 7 -4 8 -87 3 -259 -5 -171 -4 -254 3 -259 6 -3 49
13 96 36 l86 43 0 248 c0 140 4 256 10 266 5 10 24 24 42 31 122 46 148 61
153 84 2 12 7 73 10 136 l7 116 61 23 c111 41 101 63 99 -229 -1 -149 -6 -266
-12 -281 -6 -14 -10 -65 -8 -114 2 -73 6 -90 19 -93 19 -3 125 43 134 59 13
20 17 76 22 275 4 192 5 202 26 221 26 23 135 68 144 60 5 -6 5 -146 0 -202
-3 -30 30 -29 88 3 l50 27 6 90 c4 50 12 122 18 160 6 39 11 102 11 142 0 39
5 75 10 78 6 4 10 196 10 544 l0 538 -51 11 c-28 7 -65 12 -82 12 -17 0 -58 5
-91 11 -150 26 -227 39 -311 49 -49 6 -115 15 -145 21 -52 8 -179 28 -320 49
-104 15 -260 39 -321 50 -64 12 -294 11 -359 0z"/>
</g>
</svg>
